<svg xmlns="http://www.w3.org/2000/svg" viewBox="0 0 267.16 349.8"><defs><style>.cls-1{fill:#ffca03;}</style></defs><g id="Capa_2" data-name="Capa 2"><g id="Capa_1-2" data-name="Capa 1"><path class="cls-1" d="M127.89,327.13l-4.09-4.08L120,328.23c-5,0-5.55,1-2.92,7l-3.29-3.29c-7.26,3.65-7.41,4-6.39,12.9-.86-1.58-1.72-3.17-2.81-5.2-2.68,1.66-5.36,3.22-7.93,4.94-2.73,1.84-5.3,3.36-9,3.24-3.09-.11-6.2,1.78-9.36,2-2.93.16-6.67.18-8.74-1.44-5.85-4.56-11-10-16.46-15.09-.12-.11-.29-.27-.28-.4.41-6.25-5.46-8.49-8.18-12.73-17.79-27.67-31.86-57-40-89-.7-2.75-1.56-5.46-2.12-8.23C1,215.67-1.11,208.78.69,201c1.92-8.34,1.73-17.18,2.5-25.8a21.8,21.8,0,0,1,.74-3l3.16,1.27c.24-1.93.52-3.72.69-5.52.74-7.9,6.07-11.42,12.78-7.2a49.35,49.35,0,0,1,13.32,13C43,186.47,49.11,201,55.48,215.32c.43,1,1.44,1.67,2.92,3.32.48-2.44.8-4,1.06-5.49A237.29,237.29,0,0,1,109.61,102c3.28-4.06,9.25-6.34,11.55-10.72,4.7-8.94,12.81-14.17,19.77-20.47,8.22-7.42,17.72-13.42,26.83-20.17-.06,1-.12,1.9-.22,3.43,14.25-9.68,26.67-21.35,43.72-28.27l-3.95,3.95.36.7c4.67-2.7,9.36-5.36,14-8.11,4.85-2.87,9.66-5.83,14.8-8.35l-6.74,5.59L266.39,0l.77,1.21L231.43,25l3.84,3.2c-.17.34-.24.68-.45.85-5.54,4.47-12.66,8-16.23,13.65-4,6.44-10.25,8.79-15.53,12.75a221.94,221.94,0,0,0-70,87c-2.69,5.92-4,12.48-6,18.7-1,3.16-2.75,6.15-3.39,9.37-1.77,9-3,18.08-4.71,27.08-2,10.39-2.39,20.93-3.4,31.4-.37,3.87-.21,7.79-.31,12.2l-4.61.55c.12,1.85-.28,3.86.47,5.25a9,9,0,0,0,4.23,3.61c.68.29,2.41-1.16,3.27-2.17q28.8-33.88,57.51-67.84a11,11,0,0,1,2.42-2.49q17-10.37,34.1-20.6a20.81,20.81,0,0,1,3.05-1l-13.93,10.87.63,1.48,17.05-4.66-3.25,3.25,7-1.41L212,181.84l9.72-2.5c.65,2.67,6.57,6.24-1.58,8.34.38,1.18,1.11,2.84.93,2.95-6.79,4-6.16,14.24-15.82,16.56l5.81,3.24c-4.44,5-9,9.74-13.11,14.83-12,14.74-24.1,29.35-35.45,44.55-8.13,10.9-15,22.7-22.63,34a119.26,119.26,0,0,1-7.43,9.4C126.79,319.92,126.76,319.9,127.89,327.13Z"/></g></g></svg>