<svg xmlns="http://www.w3.org/2000/svg" viewBox="0 0 258.59 332.74"><defs><style>.cls-1{fill:#001b42;}</style></defs><g id="Capa_2" data-name="Capa 2"><g id="Capa_1-2" data-name="Capa 1"><path class="cls-1" d="M8.55,252.61l5.34,2.23-3.35,5.51c1.88,4.61,1.22,5.51-5.33,5.35l4.3,1.79c-.62,8.11-.86,8.37-9.51,10.82l5.87.62c-.51,3.11-.93,6.18-1.55,9.21-.66,3.22-1.1,6.18.41,9.52,1.27,2.81.7,6.42,1.74,9.4,1,2.77,2.38,6.24,4.66,7.54,6.44,3.67,13.43,6.4,20.21,9.49.15.07.36.16.48.11,5.62-2.75,9.92,1.83,14.88,2.74,32.35,5.95,64.81,7.83,97.5,3.25,2.81-.39,5.64-.63,8.41-1.16,7.23-1.39,14.42-2,21-6.66,7-4.95,15.24-8.13,22.92-12.12a21.38,21.38,0,0,0,2.54-1.83L196.66,306c1.69-1,3.25-1.89,4.85-2.73,7-3.69,8.26-10,1.8-14.56a49.33,49.33,0,0,0-17.09-7.39c-15.32-3.62-31.07-3.71-46.74-4.16-1,0-2.08-.7-4.18-1.45,2.09-1.36,3.37-2.24,4.68-3.06A237.25,237.25,0,0,0,223.79,184c2.51-4.58,2.35-11,5.53-14.76,6.49-7.74,8.25-17.23,11.43-26.06,3.74-10.42,5.69-21.49,8.47-32.49l-3.09,1.52c3.55-16.86,9.62-32.79,9.56-51.18l-2.16,5.15-.79-.07c.73-5.34,1.41-10.69,2.19-16,.81-5.58,1.72-11.15,2.1-16.86l-2.6,8.36c1.48-14.72,2.82-28,4.16-41.34L257.18,0c-2.78,13.81-5.56,27.63-8.48,42.1l-4.41-2.34c-.25.29-.54.49-.62.74-2,6.83-2.54,14.74-6.46,20.2-4.43,6.17-4.24,12.83-5.9,19.21a222,222,0,0,1-53.89,97.76c-4.46,4.73-10,8.39-15,12.64-2.53,2.15-4.63,4.88-7.37,6.69-7.64,5.05-15.58,9.66-23.27,14.64-8.86,5.75-18.44,10.16-27.75,15.07-3.44,1.81-7.13,3.16-11.17,4.92.25.88.67,2.39,1.25,4.47-1.76.6-3.47,1.72-5,1.56a9,9,0,0,1-5-2.54c-.52-.52.16-2.68.77-3.85q20.4-39.51,40.92-79a11.18,11.18,0,0,0,1.38-3.19c2.09-13.11,4.1-26.24,6.11-39.36a23.33,23.33,0,0,0-.21-3.21c-1.82,6.49-3.3,11.75-4.77,17l-1.61,0c-.73-5.88-1.45-11.75-2.16-17.55l-1.78,4.25c-.53-2.76-.84-4.37-1.36-7L111,119.67c-.47-3.37-.9-6.5-1.38-9.94-2.71.42-8.27-3.71-7.11,4.63-1.24.1-3,0-3.09.26-1.12,7.8-10.83,11.11-9.31,20.92L85,131.41c-2.93,6-5.59,12-8.74,17.75-9.1,16.65-18,33.44-27.75,49.71-7,11.66-15.29,22.54-22.87,33.86a115.88,115.88,0,0,0-5.87,10.44C15.64,250.9,15.67,250.91,8.55,252.61Z"/></g></g></svg>