<?xml version="1.0" encoding="utf-8"?>
<!-- Generator: Adobe Illustrator 25.2.1, SVG Export Plug-In . SVG Version: 6.00 Build 0)  -->
<svg version="1.1" id="Capa_1" xmlns="http://www.w3.org/2000/svg" xmlns:xlink="http://www.w3.org/1999/xlink" x="0px" y="0px"
	 viewBox="0 0 890 338.5" style="enable-background:new 0 0 890 338.5;" xml:space="preserve">
<style type="text/css">
	.st0{fill:#FFFFFF;}
</style>
<g id="Capa_2_1_">
	<g id="Capa_1-2">
		<path class="st0" d="M261.7,161.2c37.5-31.4,84.9-38.3,117.4-38.7c10.5-42.8,32.1-75.1,64.7-96.3C477,4.5,515.4-0.7,547.8,0.1
			c32.4-0.8,70.8,4.4,104,26.1c32.5,21.3,54.2,53.6,64.7,96.3c32.6,0.4,79.9,7.3,117.4,38.7c37.2,31.1,56.1,77.6,56.1,138.1
			c0,20.7-16.8,37.6-37.5,37.6c0,0,0,0,0,0H243.2c-20.7,0-37.6-16.8-37.6-37.5c0,0,0,0,0,0C205.7,238.7,224.5,192.3,261.7,161.2z"/>
		<path class="st0" d="M44,338.5h69.6c25.2,0,45.6-21.1,43.9-46.2c-2.3-34.8-13.2-76.7-52.2-76.7c-76.5,0-99.5,38-104.8,71.8
			c-3.9,24,12.4,46.6,36.4,50.5C39.3,338.3,41.6,338.5,44,338.5z"/>
	</g>
</g>
</svg>
