<svg xmlns="http://www.w3.org/2000/svg" viewBox="0 0 889.98 338.54"><defs><style>.cls-1{fill:#001b42;}</style></defs><g id="Capa_2" data-name="Capa 2"><g id="Capa_1-2" data-name="Capa 1"><path class="cls-1" d="M261.74,161.17c37.53-31.38,84.86-38.28,117.42-38.67,10.49-42.77,32.15-75.08,64.67-96.34C477,4.51,515.39-.74,547.82.08c32.44-.82,70.83,4.43,104,26.08C684.34,47.42,706,79.73,716.49,122.5c32.56.39,79.89,7.29,117.42,38.67C871.12,192.27,890,238.73,890,299.28a37.55,37.55,0,0,1-37.56,37.56H243.23a37.55,37.55,0,0,1-37.56-37.56C205.67,238.73,224.53,192.27,261.74,161.17Z"/><path class="cls-1" d="M44,338.54h69.62c25.15,0,45.56-21.08,43.91-46.18-2.31-34.84-13.18-76.66-52.15-76.66-76.49,0-99.48,38-104.81,71.78A44,44,0,0,0,44,338.54Z"/></g></g></svg>