<svg xmlns="http://www.w3.org/2000/svg" viewBox="0 0 321.75 321.14"><defs><style>.cls-1{fill:#001b42;}.cls-2{fill:#fed230;}.cls-3{fill:#2a3b3b;}.cls-4{fill:#45676d;}</style></defs><g id="Capa_2" data-name="Capa 2"><g id="Capa_1-2" data-name="Capa 1"><path class="cls-1" d="M299.91,89.71c7.79,14.21,12.62,29.44,15.46,45.32a156,156,0,0,1,.63,51.51c-4.89,31.56-18,59.33-39.54,82.94A156.47,156.47,0,0,1,197,317a132,132,0,0,1-20.62,3.6c-.59.05-1.29-.09-1.67.58H159V270.93l.21-.45c2.17-1.62,4.83-1.32,7.23-1.48a106.71,106.71,0,0,0,92.68-70.22,109.87,109.87,0,0,0,6.09-30.3c1.29-20.89-3.63-40.21-13.62-58.41-.8-1.46-1.92-2.81-1-4.64,2.14-1.47,4.48-.63,6.66-.34q8.82,1.17,17.64,2.37a10,10,0,0,0,8.54-2.92c4.43-4.13,8-9.07,12.52-13.11C297.05,90.41,298,89,299.91,89.71Z"/><path class="cls-1" d="M160.44,275.8a10.26,10.26,0,0,0-.53-4.32c-1.49-2.46-4.07-2.46-6.39-2.54A97.78,97.78,0,0,1,122,262.56Q82.19,247.5,63.26,209.38a103.44,103.44,0,0,1-10.45-56.6,105.79,105.79,0,0,1,35.3-69.65A107.93,107.93,0,0,1,129.2,60.35C138,57.71,147,56.65,156.07,56c1.61-.11,3.17-.28,3.87-2.07a9.54,9.54,0,0,0,.5-4q.06-20.82,0-41.64a9.47,9.47,0,0,0-.54-4c-.77-1.8-2.38-1.81-4-1.9a85,85,0,0,0-13.45.82,161.48,161.48,0,0,0-40.2,9.39,156.84,156.84,0,0,0-50.59,30.9A160.12,160.12,0,0,0,11.63,99.1C4.45,115.81,0,133,.31,151.35a.71.71,0,0,0-.31.1v23.26c.58.74.25,1.61.31,2.42.39,5.51.23,11.09,1.29,16.51a155.72,155.72,0,0,0,17.11,46.92A162.3,162.3,0,0,0,55.62,285.3a159.06,159.06,0,0,0,45.08,26.8c9.65,3.79,19.52,6.8,29.87,8,4,.47,8.1.3,12.09,1H159c1.74-1.39,1.41-3.38,1.42-5.22Q160.51,295.87,160.44,275.8Z"/><path class="cls-1" d="M159,3.87a155,155,0,0,1,62.31,12.61c3.55,1.5,7,3.3,10.43,5,.92,1.91-.6,2.9-1.62,3.95-3.92,4-7.86,8.06-11.94,11.94-3.93,3.75-5.72,7.91-4.35,13.45,1.31,5.24,1.87,10.65,2.77,16,.26,1.51.31,2.91-1,4-1.71.8-3-.24-4.37-1a106.91,106.91,0,0,0-33.69-12.05c-4.81-.84-9.63-1.77-14.56-1.69-1.48,0-3,0-4-1.31l0-.2Q159,29.21,159,3.87Z"/><path class="cls-2" d="M215.62,70.69c-1.13-7.3-2.14-14.62-3.46-21.89a11.17,11.17,0,0,1,3.33-10.5c5.46-5.58,10.85-11.23,16.27-16.85,5.88-6,11.73-11.95,17.64-17.87C253.12-.14,257-.93,261.05,1.06c3.32,1.61,4.85,4.43,5.43,7.93,2,12.16,4.16,24.31,6.11,36.48.32,2,.88,2.79,3,3.05,12.25,1.53,24.46,3.25,36.69,4.88,4.15.55,7.35,2.37,8.86,6.46s.1,7.57-2.78,10.59q-9.21,9.63-18.45,19.26c-5.06,5.12-10.19,10.19-15.16,15.4a11.4,11.4,0,0,1-10.7,3.71c-7.74-1.16-15.52-2-23.28-3-1,1.2-2.34,1-3.74.89-4.75-.52-9.46-1.45-14.25-1.74-1.6-.92-3.45-.55-5.16-1-5.47-1.39-9.09-5.46-9.48-11a8.31,8.31,0,0,0-.62-3c-.77-4.91-1.63-9.81-2.44-14.72C214.83,73.63,214.55,72.07,215.62,70.69Z"/><path class="cls-1" d="M159,216.94c-11.79-.42-22.76-3.46-32.2-10.76-17.88-13.85-25.31-32.28-20.84-54.29S124.58,116,146.35,110c4.16-1.14,8.48-1,12.69-1.77a2.19,2.19,0,0,1,.78.9,8.07,8.07,0,0,1,.61,4c0,10.08,0,20.17,0,30.26,0,1.57-.36,3.09-.46,4.64v1c-1.47,2.78-3.75,4.91-5.91,7.13-5.23,5.35-4,11.31,2.86,14.36a6.53,6.53,0,0,1,2.68,1.55,7.71,7.71,0,0,1,.45,1,13.78,13.78,0,0,1,.36,4c0,11.56.05,23.13,0,34.7,0,1.72.3,3.61-1.42,4.87Z"/><path class="cls-3" d="M189.88,118.27l29-28.35c0,.09.14.18.15.27.41,8.63,5.13,12.85,13.58,13.24l-29.07,28.93c.09,3-2.31,4.37-4.12,6-8.34,7.32-15.8,15.52-23.74,23.25-3,2.91-5.78,6.06-9,8.77-2.14,1.82-4.45,4.13-7.73,1.95l-.08-.2a3.7,3.7,0,0,1-1.3-3.06c-.13-5.13-.11-10.26,0-15.39,0-1.52.82-2.8,1.21-4.21l.21-.68a18.31,18.31,0,0,1,4.44-6q11.13-11,22.18-22.13C186.85,119.45,188,118.28,189.88,118.27Z"/><path class="cls-1" d="M159,172.29c3.27,0,5.66-1.76,7.88-4q17-16.86,34.13-33.66c.81-.8,1.69-1.54,2.54-2.31a50.85,50.85,0,0,1,8.9,37.37c-2.83,19.85-13.65,33.91-31.64,42.43A45.44,45.44,0,0,1,159,216.72Q159,194.51,159,172.29Z"/><path class="cls-1" d="M189.88,118.27Q174.76,133.81,159,148.75q0-20,0-40.08C170.41,108.35,180.57,111.94,189.88,118.27Z"/><path class="cls-4" d="M158.83,149.43q.06,11.34.1,22.66a8.83,8.83,0,0,1-8.8-5.74,9.07,9.07,0,0,1,2-10.38C154.3,153.73,156.59,151.61,158.83,149.43Z"/></g></g></svg>