<svg xmlns="http://www.w3.org/2000/svg" viewBox="0 0 21.06 44.1"><defs><style>.cls-1{fill:#fff;}</style></defs><g id="Capa_2" data-name="Capa 2"><g id="Capa_1-2" data-name="Capa 1"><path class="cls-1" d="M5.83,33.24V23.32c0-.87,0-.88-.9-.88-1.39,0-2.78,0-4.17,0-.56,0-.76-.22-.76-.77,0-2.13,0-4.27,0-6.4,0-.74.1-.84.86-.84H4.92c.9,0,.9,0,.91-.93,0-2.21,0-4.43,0-6.64A9,9,0,0,1,7,2.73,5.15,5.15,0,0,1,11.61.05c2.91-.09,5.83,0,8.75,0,.46,0,.69.2.69.66,0,2.1,0,4.19,0,6.29,0,.55-.34.69-.81.7-1.15,0-2.31,0-3.46,0a1.94,1.94,0,0,0-2.15,2.15c0,1.31,0,2.63,0,3.94,0,.5.15.69.67.68,1.65,0,3.29,0,4.94,0,.72,0,.83.11.84.8v6.4c0,.68-.12.8-.78.8H15.4c-.78,0-.78,0-.78.78V43.43c0,.46-.23.67-.7.67H6.52c-.55,0-.7-.25-.7-.75,0-2.23,0-4.47,0-6.7Z"/></g></g></svg>