<svg xmlns="http://www.w3.org/2000/svg" viewBox="0 0 172.03 103.55"><defs><style>.cls-1{fill:#001b42;}</style></defs><g id="Capa_2" data-name="Capa 2"><g id="Capa_1-2" data-name="Capa 1"><path class="cls-1" d="M135.25,93.8A4,4,0,0,1,133.86,86a16,16,0,0,0,7.56-6.71,4,4,0,1,1,7.12,3.86,24.07,24.07,0,0,1-11.93,10.47A4,4,0,0,1,135.25,93.8Z"/><path class="cls-1" d="M86,92.72a4.82,4.82,0,0,0,3.68-2.16A36.53,36.53,0,0,1,76,40.9c-1.17.08-2.33.19-3.46.31-2,.21-4.06.52-6.07.88a44.78,44.78,0,0,0-3.2,19.46l18.36,29.2A4.93,4.93,0,0,0,86,92.72Z"/><path class="cls-1" d="M93.44,25.26a5.84,5.84,0,0,1-.72-6.83,5.89,5.89,0,0,1,3-2.55,45.86,45.86,0,0,0-5.27,1.85A44.52,44.52,0,0,0,77,26.6a24.58,24.58,0,0,1,9.14,2.85A37,37,0,0,1,93.44,25.26Z"/><path class="cls-1" d="M94.94,101.6a44.17,44.17,0,0,0,30.4-1.63,4,4,0,1,0-3.16-7.45,36.4,36.4,0,0,1-21.48,2.19c-.06.14-.1.3-.17.44A16.69,16.69,0,0,1,94.94,101.6Z"/><path class="cls-1" d="M148.9,41.15a44.47,44.47,0,0,0-20.54-22L133.81,24a5.87,5.87,0,0,1,.46,8.27,8.22,8.22,0,0,1-.61.57,35.44,35.44,0,0,1,3.51,4A20.37,20.37,0,0,1,147.34,40,18.12,18.12,0,0,1,148.9,41.15Z"/><path class="cls-1" d="M98.84,25.27l11.71-3.15-19.06,69a6.72,6.72,0,0,1-11.31.68L53.57,49.43a4.05,4.05,0,1,0-6.86,4.31L73.39,96.17a1.74,1.74,0,0,0,.11.18,14.68,14.68,0,0,0,12.08,6.28c.4,0,.79,0,1.19,0a14.7,14.7,0,0,0,12.14-8.23,3.83,3.83,0,0,0,.27-.71l19.35-70,8.68,7.76a4,4,0,0,0,5.4-6L120.94,14.94l2.71-9.81A4,4,0,1,0,115.85,3l-2.79,10.09L96.74,17.44a4.05,4.05,0,0,0,2.1,7.83Z"/><path class="cls-1" d="M2.34,57.93c4.6-4.94,11.41-7.23,17.58-9a127.15,127.15,0,0,1,18.91-3.61c.71-.09,1.55-.29,1.81-1a1.48,1.48,0,0,0-.37-1.45A3.82,3.82,0,0,0,39,42c-5.86-2.69-12-5-18.51-4.36A23.54,23.54,0,0,0,0,56.69,1.36,1.36,0,0,0,2.34,57.93Z"/><path class="cls-1" d="M28.9,63.34A19.29,19.29,0,0,0,32.36,85.1a1.08,1.08,0,0,0,1.82-1c-1.81-9.22,5-24.2,8.54-31.06a1.14,1.14,0,0,0-1.55-1.54C37.26,54,31.19,58.53,28.9,63.34Z"/><path class="cls-1" d="M52.23,40.24a4.37,4.37,0,0,0-.94,1.24A1.48,1.48,0,0,0,51.4,43c.47.56,1.33.43,2,.24a128.58,128.58,0,0,1,19-3.8c6.39-.66,13.54-1.1,19.46,1.77a1.43,1.43,0,0,0,1.78-2c-5-8.86-15.94-12.86-25.38-10C61.94,31.07,56.89,35.51,52.23,40.24Z"/><path class="cls-1" d="M46.67,38.69c3.17-7.17,10.55-22.13,18.58-26.22A1.16,1.16,0,0,0,65,10.31c-7.8-1.22-15,3-18.49,10.32-2.33,4.88-2.21,12.81-1.86,17.68A1.07,1.07,0,0,0,46.67,38.69Z"/><path class="cls-1" d="M124.86,45a4.06,4.06,0,0,0,5.1,2.6c2-.66,8.19-1.83,12,.67,2.29,1.51,3.58,4.2,4,8.24a4.06,4.06,0,0,0,4.74,3.61c.06,0,6.39-1,10.18,2.15a8.51,8.51,0,0,1,2.67,4.6H118.8a4.05,4.05,0,1,0,0,8.1H168a4,4,0,0,0,4.05-4c0-6.52-2-11.53-6-14.89s-9.15-4.12-12.66-4.17a16.58,16.58,0,0,0-7-10.38c-7.86-5.14-18.47-1.73-18.92-1.58A4,4,0,0,0,124.86,45Z"/></g></g></svg>