<svg xmlns="http://www.w3.org/2000/svg" viewBox="0 0 49.32 49.21"><defs><style>.cls-1{fill:#001b42;}</style></defs><g id="Capa_2" data-name="Capa 2"><g id="Capa_1-2" data-name="Capa 1"><path class="cls-1" d="M24.68,49.16c-3.47,0-6.94.14-10.39,0C5.74,48.72.49,43.6.19,35c-.26-7.19-.25-14.41,0-21.61C.48,5.47,5.61.42,13.64.16,21-.07,28.3,0,35.62.18c4.86.16,9,2.12,11.53,6.59a15.6,15.6,0,0,1,1.81,7,149.87,149.87,0,0,1-.16,22.82C48.13,43.64,43.36,48.48,36.27,49c-3.84.27-7.72,0-11.59,0ZM4.83,23.52c.15,4.32.22,8,.41,11.57.26,4.72,2.65,7.31,7.3,8a18,18,0,0,0,2.64.25c5.28,0,10.56.07,15.84,0,1.73,0,3.46-.09,5.18-.26,4.54-.45,7.23-2.85,7.49-7.37C44,29.54,44,23.25,44,17a38,38,0,0,0-.27-4c-.45-5-3.53-7.34-7.93-7.48q-11.47-.34-22.95,0c-4.4.13-7,2.64-7.45,7C5,16.39,5,20.31,4.83,23.52Z"/><path class="cls-1" d="M11.82,24.59a12.2,12.2,0,0,1,12-12.34,12.3,12.3,0,0,1,.32,24.6A12.17,12.17,0,0,1,11.82,24.59Zm19-.06a7,7,0,1,0-13.92,0,7,7,0,1,0,13.92,0Z"/><path class="cls-1" d="M39.76,12.41a2.71,2.71,0,0,1-2.8,2.8,2.77,2.77,0,0,1-2.77-2.74A2.85,2.85,0,0,1,37,9.58,2.8,2.8,0,0,1,39.76,12.41Z"/></g></g></svg>