<svg xmlns="http://www.w3.org/2000/svg" viewBox="0 0 318.27 328.61"><defs><style>.cls-1{fill:#001b42;}.cls-2{fill:none;stroke:#fed230;stroke-linecap:round;stroke-miterlimit:10;stroke-width:10.68px;}</style></defs><g id="Capa_2" data-name="Capa 2"><g id="Capa_1-2" data-name="Capa 1"><path class="cls-1" d="M90.88,273.39c.72-8.17,1.41-16.07,2.1-24q1.58-17.9,3.16-35.78,1.64-18.78,3.25-37.56,1.56-18,3.16-36a14.38,14.38,0,0,0,.26-2.75,3.24,3.24,0,0,0-1-2.05c-3.14-2.46-4.32-5.62-3.21-9.09,1-3.09,3.91-5.14,7.65-5.35,1.43-.09,3.52.33,4.13-.43.77-.94.4-2.88.41-4.38,0-5.78,0-11.56,0-17.33,0-6.41,3-9.4,9.36-9.4,1.18,0,2.37,0,3.7,0V55c-1.88,0-3.65,0-5.42,0A7.39,7.39,0,0,1,111,49.28a7.81,7.81,0,0,1,3.25-8.53Q133.61,28.14,153,15.61a3.87,3.87,0,0,0,2.11-4,23.64,23.64,0,0,1,.09-4.37,7.61,7.61,0,0,1,8-7.21,7.8,7.8,0,0,1,7.65,7.62,17.59,17.59,0,0,1,0,3.77c-.35,2.2.74,3.31,2.46,4.39,12.85,8.09,25.64,16.27,38.46,24.41,3.5,2.23,4.88,5.29,3.94,8.7-1.1,4-3.85,6.06-8.2,6.09-1.21,0-2.19,0-2.18,1.69.05,10.42,0,20.84,0,31.27a9.25,9.25,0,0,0,.19,1.28c.63,0,1.21.09,1.79.1,5.4.09,8.59,3.32,8.6,8.78q0,10.16,0,20.31v2.46c2,0,3.83,0,5.66,0,4.34.12,7.21,2.43,8.06,6.54.67,3.24-.71,5.72-3.25,7.54a2.76,2.76,0,0,0-1.24,2.85c.57,6.12,1.1,12.25,1.65,18.37,1,11.33,2,22.66,3,34,.73,8.44,1.36,16.89,2.08,25.33.88,10.21,1.84,20.41,2.73,30.62.72,8.38,1.43,16.75,2.05,25.14.11,1.57.52,2.31,2.21,2.16a27.77,27.77,0,0,1,4.18,0,9,9,0,0,1,6,2.85c5.44,5.44,10.84,10.93,16.36,16.31,5.29,5.16,2.35,12.4-2.68,13.86a7.73,7.73,0,0,1-8.16-2.27c-4.5-4.5-9-9.05-13.57-13.47a5.19,5.19,0,0,0-3.26-1.33q-73.89-.11-147.78,0a6.3,6.3,0,0,0-3.5,1.34A39.77,39.77,0,0,0,81.75,295,8.18,8.18,0,0,1,70,295.5c-3.31-3.68-2.75-8.62,1.26-12.08C74,281,76.72,278.6,79.31,276a9.12,9.12,0,0,1,7-2.64C87.77,273.41,89.23,273.39,90.88,273.39Zm130.3,0c0-.63,0-1.09,0-1.54q-1-12.09-2.1-24.18-1.5-17-3-34.09c-1.13-13-2.21-26-3.33-39.06-1-11.76-2.05-23.52-3.05-35.29-.23-2.69-.18-2.7-2.87-2.7H121c-.4,0-.8,0-1.2,0-1.11-.11-1.47.4-1.56,1.49-.74,8.92-1.54,17.84-2.31,26.76q-1.27,14.67-2.54,29.34-1.5,17.45-3,34.89t-3.06,34.88c-.27,3.14-.48,6.28-.72,9.49H161.5v-2.33c0-6.37-.06-12.74,0-19.12a15.7,15.7,0,0,1,15.38-15.21,15.54,15.54,0,0,1,15.87,14.86c.16,6.57.13,13.15.06,19.72,0,1.71.42,2.31,2.21,2.29,8-.09,16.06,0,24.1,0C219.78,273.56,220.42,273.47,221.18,273.41ZM163.37,105.23c-11.62,0-23.23,0-34.84,0-1.51,0-2.13.36-2.09,2,.1,3.91.08,7.83,0,11.75,0,1.52.41,2.09,2,2.09q34.85-.06,69.69,0c1.65,0,2-.66,2-2.13-.07-3.78-.11-7.57,0-11.35.06-1.8-.47-2.38-2.34-2.37C186.33,105.28,174.85,105.23,163.37,105.23Zm26.18-15.8c.08-.62.15-.88.15-1.14,0-10.55,0-21.1,0-31.65,0-1.37-.56-1.68-1.79-1.67-4.91,0-9.82.11-14.73,0-1.92,0-2.31.66-2.29,2.41.07,9.29,0,18.58,0,27.87,0,4.21,0,4.21,4.17,4.21Zm-34.38-.14c.13-.25.24-.37.24-.48,0-10.87.06-21.74,0-32.61,0-.41-1-1.14-1.52-1.16-3.51-.1-7,0-10.54,0h-3.81v34.3Zm25.08-50,.14-.33c-5.52-3.53-11-7.09-16.58-10.52a2.71,2.71,0,0,0-2.25.35c-4.6,2.88-9.15,5.85-13.72,8.8-.67.43-1.32.91-2,1.37l.21.33Z"/><path class="cls-1" d="M226.23,318.21c-14.19,14.56-39.65,13.05-54.41.35a93.71,93.71,0,0,1-8.47,5.06c-15.42,7.17-30.19,5.79-44.19-3.81-1.41-1-2.3-1.31-3.88-.12a41,41,0,0,1-22.22,8.2,42.38,42.38,0,0,1-28.93-8.27c-1.38-1-2.19-1-3.52,0a40.68,40.68,0,0,1-26.17,8.43c-13-.33-24-5.42-32.4-15.62-3-3.65-2.63-8.38.7-11.2a8.26,8.26,0,0,1,11.37,1.28,27.22,27.22,0,0,0,40.35,1.74c.74-.76,1.39-1.6,2.15-2.34a7.71,7.71,0,0,1,11.6.37A26.67,26.67,0,0,0,85.7,312c9.3,1.13,17.33-1.69,23.66-8.68,3.72-4.12,7.82-5.14,11.67-2.36a21.56,21.56,0,0,1,3,2.93,27.1,27.1,0,0,0,40-.88c4.2-4.89,9.27-4.89,13.48.07a25.86,25.86,0,0,0,16.19,9.32c8.85,1.36,16.72-.71,23.23-7.1,1.28-1.25,2.52-2.55,3.81-3.79a9,9,0,0,1,12.42.12c3.13,3.31,6.39,6.39,10.61,8.22,11.17,4.83,24.62,2.08,32.44-7.62a7.71,7.71,0,0,1,12,0,7.85,7.85,0,0,1-.16,10.08c-7.81,9.09-17.63,14.49-29.67,15.47A44.83,44.83,0,0,1,226.23,318.21Z"/><path class="cls-1" d="M310.36,312.59a7.79,7.79,0,0,1,7.91,7.73c0,4-4.06,7.93-8,7.82a8.34,8.34,0,0,1-7.68-7.93A7.65,7.65,0,0,1,310.36,312.59Z"/><path class="cls-1" d="M187.55,192a10.39,10.39,0,0,1-20.78-.12,10.7,10.7,0,0,1,10.48-10.33A10.51,10.51,0,0,1,187.55,192Z"/><line class="cls-2" x1="244.37" y1="44.95" x2="270.47" y2="28.7"/><line class="cls-2" x1="247.89" y1="99.42" x2="273.98" y2="115.67"/><line class="cls-2" x1="244.37" y1="70.28" x2="273.98" y2="70.28"/></g></g></svg>