<svg xmlns="http://www.w3.org/2000/svg" xmlns:xlink="http://www.w3.org/1999/xlink" viewBox="0 0 3527.52 4729.38"><defs><style>.cls-1{fill:none;}.cls-2{fill:#06aafd;}.cls-3{fill:#ffbfbc;}.cls-4{clip-path:url(#clip-path);}.cls-5{fill:url(#New_Pattern_5);}</style><clipPath id="clip-path"><rect class="cls-1" width="1122" height="1122"/></clipPath><pattern id="New_Pattern_5" data-name="New Pattern 5" width="1122" height="1122" patternTransform="translate(56.95 1975.84) scale(0.27)" patternUnits="userSpaceOnUse" viewBox="0 0 1122 1122"><rect class="cls-1" width="1122" height="1122"/><path class="cls-2" d="M964.6,1122.28a9.82,9.82,0,0,1,5.2-12c24-11.07,48-10.68,65.92,1.07s27.81,33.65,27.18,60.06c-.47,19.78,6,35.12,18.34,43.2s29,7.95,46.94-.35a9.81,9.81,0,0,1,8.22,17.81c-24,11.07-48,10.68-65.92-1.07s-27.81-33.65-27.18-60.06c.47-19.78-6-35.12-18.34-43.2s-29-8-46.94.35a9.81,9.81,0,0,1-13-4.79C964.86,1123,964.72,1122.63,964.6,1122.28Z"/><path class="cls-2" d="M964.6,1122.28a9.82,9.82,0,0,1,5.2-12c24-11.07,48-10.68,65.92,1.07s27.81,33.65,27.18,60.06c-.47,19.78,6,35.12,18.34,43.2s29,7.95,46.94-.35a9.81,9.81,0,0,1,8.22,17.81c-24,11.07-48,10.68-65.92-1.07s-27.81-33.65-27.18-60.06c.47-19.78-6-35.12-18.34-43.2s-29-8-46.94.35a9.81,9.81,0,0,1-13-4.79C964.86,1123,964.72,1122.63,964.6,1122.28Z"/><path class="cls-2" d="M-157.4,1122.28a9.82,9.82,0,0,1,5.2-12c24-11.07,48-10.68,65.92,1.07s27.81,33.65,27.18,60.06c-.47,19.78,6.05,35.12,18.34,43.2s29,7.95,46.94-.35a9.81,9.81,0,0,1,8.22,17.81c-24,11.07-48,10.68-65.92-1.07S-79.33,1197.37-78.7,1171c.47-19.78-6-35.12-18.34-43.2s-29-8-46.94.35a9.81,9.81,0,0,1-13-4.79C-157.14,1123-157.28,1122.63-157.4,1122.28Z"/><path class="cls-2" d="M964.6,1122.28a9.82,9.82,0,0,1,5.2-12c24-11.07,48-10.68,65.92,1.07s27.81,33.65,27.18,60.06c-.47,19.78,6,35.12,18.34,43.2s29,7.95,46.94-.35a9.81,9.81,0,0,1,8.22,17.81c-24,11.07-48,10.68-65.92-1.07s-27.81-33.65-27.18-60.06c.47-19.78-6-35.12-18.34-43.2s-29-8-46.94.35a9.81,9.81,0,0,1-13-4.79C964.86,1123,964.72,1122.63,964.6,1122.28Z"/><path class="cls-2" d="M138.35,1218.46h0a10.48,10.48,0,0,1-13.79-5.42l-40.28-92.58a10.48,10.48,0,0,1,5.43-13.79h0a10.47,10.47,0,0,1,13.78,5.43l40.29,92.58A10.47,10.47,0,0,1,138.35,1218.46Z"/><path class="cls-2" d="M-157.4,1122.28a9.82,9.82,0,0,1,5.2-12c24-11.07,48-10.68,65.92,1.07s27.81,33.65,27.18,60.06c-.47,19.78,6.05,35.12,18.34,43.2s29,7.95,46.94-.35a9.81,9.81,0,0,1,8.22,17.81c-24,11.07-48,10.68-65.92-1.07S-79.33,1197.37-78.7,1171c.47-19.78-6-35.12-18.34-43.2s-29-8-46.94.35a9.81,9.81,0,0,1-13-4.79C-157.14,1123-157.28,1122.63-157.4,1122.28Z"/><path class="cls-2" d="M-157.4,1122.28a9.82,9.82,0,0,1,5.2-12c24-11.07,48-10.68,65.92,1.07s27.81,33.65,27.18,60.06c-.47,19.78,6.05,35.12,18.34,43.2s29,7.95,46.94-.35a9.81,9.81,0,0,1,8.22,17.81c-24,11.07-48,10.68-65.92-1.07S-79.33,1197.37-78.7,1171c.47-19.78-6-35.12-18.34-43.2s-29-8-46.94.35a9.81,9.81,0,0,1-13-4.79C-157.14,1123-157.28,1122.63-157.4,1122.28Z"/><path class="cls-3" d="M964.6,1122.28a9.82,9.82,0,0,1,5.2-12c24-11.07,48-10.68,65.92,1.07s27.81,33.65,27.18,60.06c-.47,19.78,6,35.12,18.34,43.2s29,7.95,46.94-.35a9.81,9.81,0,0,1,8.22,17.81c-24,11.07-48,10.68-65.92-1.07s-27.81-33.65-27.18-60.06c.47-19.78-6-35.12-18.34-43.2s-29-8-46.94.35a9.81,9.81,0,0,1-13-4.79C964.86,1123,964.72,1122.63,964.6,1122.28Z"/><path class="cls-2" d="M1095.32,454.88h0a10.48,10.48,0,0,1-6.13-13.49l108.66-289.48a10.48,10.48,0,0,1,13.49-6.13h0a10.47,10.47,0,0,1,6.12,13.49L1108.81,448.75A10.48,10.48,0,0,1,1095.32,454.88Z"/><path class="cls-3" d="M964.6,1122.28a9.82,9.82,0,0,1,5.2-12c24-11.07,48-10.68,65.92,1.07s27.81,33.65,27.18,60.06c-.47,19.78,6,35.12,18.34,43.2s29,7.95,46.94-.35a9.81,9.81,0,0,1,8.22,17.81c-24,11.07-48,10.68-65.92-1.07s-27.81-33.65-27.18-60.06c.47-19.78-6-35.12-18.34-43.2s-29-8-46.94.35a9.81,9.81,0,0,1-13-4.79C964.86,1123,964.72,1122.63,964.6,1122.28Z"/><path class="cls-2" d="M964.6.28a9.82,9.82,0,0,1,5.2-12c24-11.07,48-10.68,65.92,1.07S1063.53,23,1062.9,49.43c-.47,19.78,6,35.12,18.34,43.2s29,8,46.94-.35a9.81,9.81,0,0,1,8.22,17.81c-24,11.07-48,10.68-65.92-1.07S1042.67,75.37,1043.3,49c.47-19.78-6-35.12-18.34-43.2S996-2.19,978,6.11a9.81,9.81,0,0,1-13-4.79C964.86,1,964.72.63,964.6.28Z"/><path class="cls-2" d="M964.6,1122.28a9.82,9.82,0,0,1,5.2-12c24-11.07,48-10.68,65.92,1.07s27.81,33.65,27.18,60.06c-.47,19.78,6,35.12,18.34,43.2s29,7.95,46.94-.35a9.81,9.81,0,0,1,8.22,17.81c-24,11.07-48,10.68-65.92-1.07s-27.81-33.65-27.18-60.06c.47-19.78-6-35.12-18.34-43.2s-29-8-46.94.35a9.81,9.81,0,0,1-13-4.79C964.86,1123,964.72,1122.63,964.6,1122.28Z"/><path class="cls-2" d="M623.32,1215.55a9.94,9.94,0,0,1-12.73-3.69c-14.25-22.73-17-47-7.43-66.53s30.29-32.35,57-35.13c20-2.08,34.6-10.62,41.14-24s4.27-30.2-6.4-47.23a10,10,0,0,1,16.87-10.58c14.25,22.73,17,47,7.43,66.53s-30.3,32.36-57,35.13c-20,2.08-34.6,10.63-41.15,24s-4.27,30.21,6.41,47.23a10,10,0,0,1-3.15,13.73A9.49,9.49,0,0,1,623.32,1215.55Z"/><path class="cls-3" d="M-157.4,1122.28a9.82,9.82,0,0,1,5.2-12c24-11.07,48-10.68,65.92,1.07s27.81,33.65,27.18,60.06c-.47,19.78,6.05,35.12,18.34,43.2s29,7.95,46.94-.35a9.81,9.81,0,0,1,8.22,17.81c-24,11.07-48,10.68-65.92-1.07S-79.33,1197.37-78.7,1171c.47-19.78-6-35.12-18.34-43.2s-29-8-46.94.35a9.81,9.81,0,0,1-13-4.79C-157.14,1123-157.28,1122.63-157.4,1122.28Z"/><path class="cls-2" d="M482.35,879h0A32.87,32.87,0,0,1,515,845.88h0a32.88,32.88,0,0,1,33.14,32.61h0a32.89,32.89,0,0,1-32.62,33.14h0A32.88,32.88,0,0,1,482.35,879Z"/><path class="cls-2" d="M20,567.21h0a32.87,32.87,0,0,1,32.61-33.14h0a32.88,32.88,0,0,1,33.14,32.61h0a32.89,32.89,0,0,1-32.62,33.14h0A32.88,32.88,0,0,1,20,567.21Z"/><path class="cls-2" d="M816.77,355.72h0a32.88,32.88,0,0,1,32.61-33.13h0a32.87,32.87,0,0,1,33.14,32.61h0a32.86,32.86,0,0,1-32.61,33.13h0A32.87,32.87,0,0,1,816.77,355.72Z"/><path class="cls-2" d="M845,1013.47h0a32.87,32.87,0,0,1,32.61-33.14h0a32.88,32.88,0,0,1,33.13,32.61h0a32.87,32.87,0,0,1-32.61,33.14h0A32.88,32.88,0,0,1,845,1013.47Z"/><path class="cls-2" d="M463.12,654.86a10,10,0,0,1-3.23,12.87c-22.2,15-46.34,18.63-66.22,9.81s-33.42-29.12-37.15-55.69c-2.8-19.9-11.86-34.2-25.51-40.26s-30.34-3.19-47,8.09a10,10,0,1,1-11.17-16.48c22.2-15.05,46.34-18.63,66.22-9.81s33.42,29.12,37.15,55.69c2.79,19.9,11.85,34.2,25.51,40.26s30.33,3.18,47-8.09a9.94,9.94,0,0,1,13.82,2.65A8.75,8.75,0,0,1,463.12,654.86Z"/><path class="cls-2" d="M910.18,629.4a12,12,0,0,1-15.45-4.1c-17.79-27-21.72-56.14-10.78-80s35.62-39.82,67.7-43.9c24-3.06,41.4-13.75,48.92-30.12s4.32-36.51-9-56.73a12,12,0,0,1,20-13.21c17.8,27,21.73,56.15,10.79,80s-35.62,39.83-67.7,43.9c-24,3.06-41.4,13.75-48.92,30.12s-4.32,36.51,9,56.73a12,12,0,0,1-3.41,16.62A11.7,11.7,0,0,1,910.18,629.4Z"/><path class="cls-2" d="M964.6,1122.28a9.82,9.82,0,0,1,5.2-12c24-11.07,48-10.68,65.92,1.07s27.81,33.65,27.18,60.06c-.47,19.78,6,35.12,18.34,43.2s29,7.95,46.94-.35a9.81,9.81,0,0,1,8.22,17.81c-24,11.07-48,10.68-65.92-1.07s-27.81-33.65-27.18-60.06c.47-19.78-6-35.12-18.34-43.2s-29-8-46.94.35a9.81,9.81,0,0,1-13-4.79C964.86,1123,964.72,1122.63,964.6,1122.28Z"/><path class="cls-2" d="M964.6.28a9.82,9.82,0,0,1,5.2-12c24-11.07,48-10.68,65.92,1.07S1063.53,23,1062.9,49.43c-.47,19.78,6,35.12,18.34,43.2s29,8,46.94-.35a9.81,9.81,0,0,1,8.22,17.81c-24,11.07-48,10.68-65.92-1.07S1042.67,75.37,1043.3,49c.47-19.78-6-35.12-18.34-43.2S996-2.19,978,6.11a9.81,9.81,0,0,1-13-4.79C964.86,1,964.72.63,964.6.28Z"/><path class="cls-2" d="M273.44,233.17h0a10.47,10.47,0,0,1,2.13-14.66l141.77-105.8A10.47,10.47,0,0,1,432,114.85h0a10.46,10.46,0,0,1-2.13,14.66L288.1,235.3A10.47,10.47,0,0,1,273.44,233.17Z"/><path class="cls-2" d="M929.77,779.87h0a8.51,8.51,0,0,1,11.19,4.4l40,91.92a8.51,8.51,0,0,1-4.4,11.19h0a8.51,8.51,0,0,1-11.19-4.4l-40-91.92A8.51,8.51,0,0,1,929.77,779.87Z"/><path class="cls-2" d="M840.75,118h0a10.48,10.48,0,0,1,5.51,13.76l-39.71,92.82a10.48,10.48,0,0,1-13.76,5.51h0a10.47,10.47,0,0,1-5.51-13.75L827,123.47A10.48,10.48,0,0,1,840.75,118Z"/><path class="cls-2" d="M375.49,1030h0a11,11,0,0,1-13.8-7L284.51,784.23a11,11,0,0,1,7.05-13.8h0a11,11,0,0,1,13.8,7.06l77.18,238.7A11,11,0,0,1,375.49,1030Z"/><path class="cls-2" d="M599.08,384h0a8.9,8.9,0,0,1-11.66-4.47l-25.71-56.31a8.92,8.92,0,0,1,4.55-11.88h0a8.91,8.91,0,0,1,11.67,4.48l25.7,56.31A8.9,8.9,0,0,1,599.08,384Z"/><path class="cls-2" d="M-26.68,454.88h0a10.48,10.48,0,0,1-6.13-13.49L75.85,151.91a10.48,10.48,0,0,1,13.49-6.13h0a10.47,10.47,0,0,1,6.12,13.49L-13.19,448.75A10.48,10.48,0,0,1-26.68,454.88Z"/><path class="cls-2" d="M1182.63,761.47h0a10.48,10.48,0,0,1-14.32,3.83l-153.19-88.44a10.48,10.48,0,0,1-3.83-14.32h0a10.48,10.48,0,0,1,14.31-3.83l153.19,88.44A10.49,10.49,0,0,1,1182.63,761.47Z"/><path class="cls-2" d="M711.71,818h0a10.48,10.48,0,0,1-7.34-12.87l46.75-170.6A10.48,10.48,0,0,1,764,627.19h0a10.48,10.48,0,0,1,7.34,12.87L724.58,810.67A10.47,10.47,0,0,1,711.71,818Z"/><path class="cls-2" d="M666.76,530h0a8.7,8.7,0,0,1-7.2,10L614.1,550.1a8.7,8.7,0,0,1-10-7.19h0a8.7,8.7,0,0,1,7.2-10l45.47-10.15A8.69,8.69,0,0,1,666.76,530Z"/><path class="cls-3" d="M-157.4,1122.28a9.82,9.82,0,0,1,5.2-12c24-11.07,48-10.68,65.92,1.07s27.81,33.65,27.18,60.06c-.47,19.78,6.05,35.12,18.34,43.2s29,7.95,46.94-.35a9.81,9.81,0,0,1,8.22,17.81c-24,11.07-48,10.68-65.92-1.07S-79.33,1197.37-78.7,1171c.47-19.78-6-35.12-18.34-43.2s-29-8-46.94.35a9.81,9.81,0,0,1-13-4.79C-157.14,1123-157.28,1122.63-157.4,1122.28Z"/><path class="cls-2" d="M-157.4.28a9.82,9.82,0,0,1,5.2-12c24-11.07,48-10.68,65.92,1.07S-58.47,23-59.1,49.43c-.47,19.78,6.05,35.12,18.34,43.2s29,8,46.94-.35a9.81,9.81,0,0,1,8.22,17.81c-24,11.07-48,10.68-65.92-1.07S-79.33,75.37-78.7,49c.47-19.78-6-35.12-18.34-43.2s-29-7.95-46.94.35a9.81,9.81,0,0,1-13-4.79C-157.14,1-157.28.63-157.4.28Z"/><path class="cls-2" d="M964.6.28a9.82,9.82,0,0,1,5.2-12c24-11.07,48-10.68,65.92,1.07S1063.53,23,1062.9,49.43c-.47,19.78,6,35.12,18.34,43.2s29,8,46.94-.35a9.81,9.81,0,0,1,8.22,17.81c-24,11.07-48,10.68-65.92-1.07S1042.67,75.37,1043.3,49c.47-19.78-6-35.12-18.34-43.2S996-2.19,978,6.11a9.81,9.81,0,0,1-13-4.79C964.86,1,964.72.63,964.6.28Z"/><g class="cls-4"><path class="cls-2" d="M-157.4.28a9.82,9.82,0,0,1,5.2-12c24-11.07,48-10.68,65.92,1.07S-58.47,23-59.1,49.43c-.47,19.78,6.05,35.12,18.34,43.2s29,8,46.94-.35a9.81,9.81,0,0,1,8.22,17.81c-24,11.07-48,10.68-65.92-1.07S-79.33,75.37-78.7,49c.47-19.78-6-35.12-18.34-43.2s-29-7.95-46.94.35a9.81,9.81,0,0,1-13-4.79C-157.14,1-157.28.63-157.4.28Z"/></g><path class="cls-2" d="M355.93,333.37a1.87,1.87,0,0,1-3.17-1.71c2.42-14,14.69-24.84,28-26.05,8.9-.81,17.31,2.3,25.33,6a5.29,5.29,0,0,1,1.75,1.12,2,2,0,0,1,.51,2c-.35,1-1.5,1.24-2.48,1.37-8.72,1.16-17.39,2.46-25.88,4.94S362.23,326.6,355.93,333.37Z"/><path class="cls-2" d="M399.5,369.17a1.47,1.47,0,0,1-2.48,1.38,26.37,26.37,0,0,1-4.73-29.78c3.12-6.59,11.44-12.76,16.79-16.22a1.55,1.55,0,0,1,2.12,2.1C406.4,336.05,397,356.55,399.5,369.17Z"/><path class="cls-2" d="M442,271.13a1.58,1.58,0,0,0-.4-2.95c-10.67-1.67-20.52,4.05-25.31,14.13-3.18,6.68-3,17.53-2.55,24.2a1.47,1.47,0,0,0,2.83.52C420.94,297.21,431,276.73,442,271.13Z"/><path class="cls-2" d="M478.45,310.44a2,2,0,0,0,2.43-2.79c-6.78-12.13-21.82-17.6-34.74-13.68-8.64,2.62-15.55,8.71-21.92,15.18a5.76,5.76,0,0,0-1.29,1.7,2,2,0,0,0,.15,2c.65.77,1.82.58,2.78.33,8.58-2.22,17.16-4.3,25.95-5.2S470.34,306.52,478.45,310.44Z"/><path class="cls-2" d="M458.09,382.68a5.54,5.54,0,0,1-7.82-1.61l-33.61-53.45a5.54,5.54,0,0,1,9.39-5.9l33.59,53.44a5.55,5.55,0,0,1-1.55,7.52Z"/><path class="cls-2" d="M355.85,1127.7A1.87,1.87,0,0,0,359,1126c-2.43-14-14.69-24.84-28-26-8.91-.81-17.31,2.3-25.33,6a5.47,5.47,0,0,0-1.76,1.11,2,2,0,0,0-.51,2c.35,1,1.51,1.24,2.48,1.37,8.72,1.16,17.39,2.46,25.89,4.94S349.55,1120.93,355.85,1127.7Z"/><path class="cls-2" d="M312.27,1163.5a1.47,1.47,0,0,0,2.49,1.38,26.38,26.38,0,0,0,4.73-29.78c-3.13-6.59-11.45-12.76-16.79-16.23a1.56,1.56,0,0,0-2.12,2.11C305.38,1130.37,314.74,1150.88,312.27,1163.5Z"/><path class="cls-2" d="M269.73,1065.46a1.58,1.58,0,0,1,.4-3c10.68-1.68,20.52,4,25.32,14.13,3.18,6.68,3,17.53,2.54,24.2a1.46,1.46,0,0,1-2.82.52C290.83,1091.54,280.73,1071.06,269.73,1065.46Z"/><path class="cls-2" d="M233.33,1104.77a2,2,0,0,1-2.44-2.79c6.79-12.13,21.82-17.6,34.74-13.68,8.64,2.62,15.55,8.71,21.92,15.18a5.83,5.83,0,0,1,1.3,1.7,2,2,0,0,1-.16,2c-.64.77-1.82.58-2.78.33-8.58-2.22-17.15-4.3-26-5.21S241.43,1100.85,233.33,1104.77Z"/><path class="cls-2" d="M253.68,1177a5.55,5.55,0,0,0,7.83-1.61l33.6-53.45a5.54,5.54,0,1,0-9.38-5.9l-33.6,53.44a5.55,5.55,0,0,0,1.55,7.52Z"/><path class="cls-2" d="M161.42,919.54c-7.18-6-16.24-7.32-22.47-7.4-2-8.18-6.15-14.36-12.37-18.43-14-9.12-32.79-3.06-33.58-2.79a7.18,7.18,0,0,0,4.48,13.65c3.63-1.17,14.53-3.24,21.27,1.2,4,2.67,6.35,7.45,7,14.62a7.22,7.22,0,0,0,8.4,6.41c.11,0,11.35-1.86,18.07,3.81a15,15,0,0,1,4.73,8.17H77.68a7.19,7.19,0,1,0,0,14.37H165a7.18,7.18,0,0,0,7.19-7.18C172.15,934.38,168.54,925.49,161.42,919.54Z"/><path class="cls-2" d="M604,688.43l20.2-66L636.06,633a5.54,5.54,0,0,0,7.39-8.26l-16-14.29,3.65-13.21a5.71,5.71,0,0,0-3.29-6.88,5.54,5.54,0,0,0-7.34,3.7l-3.81,13.81-22.34,6a5.55,5.55,0,0,0,2.88,10.71l16-4.31-19.9,65.13a5.53,5.53,0,0,0,3.59,6.76h0A5.53,5.53,0,0,0,604,688.43Z"/><path class="cls-2" d="M138.35,96.46h0A10.48,10.48,0,0,1,124.56,91L84.28-1.54a10.48,10.48,0,0,1,5.43-13.79h0A10.47,10.47,0,0,1,103.49-9.9l40.29,92.58A10.47,10.47,0,0,1,138.35,96.46Z"/><path class="cls-2" d="M-157.4,1122.28a9.82,9.82,0,0,1,5.2-12c24-11.07,48-10.68,65.92,1.07s27.81,33.65,27.18,60.06c-.47,19.78,6.05,35.12,18.34,43.2s29,7.95,46.94-.35a9.81,9.81,0,0,1,8.22,17.81c-24,11.07-48,10.68-65.92-1.07S-79.33,1197.37-78.7,1171c.47-19.78-6-35.12-18.34-43.2s-29-8-46.94.35a9.81,9.81,0,0,1-13-4.79C-157.14,1123-157.28,1122.63-157.4,1122.28Z"/><path class="cls-2" d="M-157.4,1122.28a9.82,9.82,0,0,1,5.2-12c24-11.07,48-10.68,65.92,1.07s27.81,33.65,27.18,60.06c-.47,19.78,6.05,35.12,18.34,43.2s29,7.95,46.94-.35a9.81,9.81,0,0,1,8.22,17.81c-24,11.07-48,10.68-65.92-1.07S-79.33,1197.37-78.7,1171c.47-19.78-6-35.12-18.34-43.2s-29-8-46.94.35a9.81,9.81,0,0,1-13-4.79C-157.14,1123-157.28,1122.63-157.4,1122.28Z"/><path class="cls-2" d="M-157.4.28a9.82,9.82,0,0,1,5.2-12c24-11.07,48-10.68,65.92,1.07S-58.47,23-59.1,49.43c-.47,19.78,6.05,35.12,18.34,43.2s29,8,46.94-.35a9.81,9.81,0,0,1,8.22,17.81c-24,11.07-48,10.68-65.92-1.07S-79.33,75.37-78.7,49c.47-19.78-6-35.12-18.34-43.2s-29-7.95-46.94.35a9.81,9.81,0,0,1-13-4.79C-157.14,1-157.28.63-157.4.28Z"/><path class="cls-2" d="M60.63,761.47h0a10.48,10.48,0,0,1-14.32,3.83l-153.19-88.44a10.48,10.48,0,0,1-3.83-14.32h0a10.48,10.48,0,0,1,14.31-3.83L56.79,747.15A10.49,10.49,0,0,1,60.63,761.47Z"/><path class="cls-2" d="M-157.4.28a9.82,9.82,0,0,1,5.2-12c24-11.07,48-10.68,65.92,1.07S-58.47,23-59.1,49.43c-.47,19.78,6.05,35.12,18.34,43.2s29,8,46.94-.35a9.81,9.81,0,0,1,8.22,17.81c-24,11.07-48,10.68-65.92-1.07S-79.33,75.37-78.7,49c.47-19.78-6-35.12-18.34-43.2s-29-7.95-46.94.35a9.81,9.81,0,0,1-13-4.79C-157.14,1-157.28.63-157.4.28Z"/><path class="cls-3" d="M964.6.28a9.82,9.82,0,0,1,5.2-12c24-11.07,48-10.68,65.92,1.07S1063.53,23,1062.9,49.43c-.47,19.78,6,35.12,18.34,43.2s29,8,46.94-.35a9.81,9.81,0,0,1,8.22,17.81c-24,11.07-48,10.68-65.92-1.07S1042.67,75.37,1043.3,49c.47-19.78-6-35.12-18.34-43.2S996-2.19,978,6.11a9.81,9.81,0,0,1-13-4.79C964.86,1,964.72.63,964.6.28Z"/><path class="cls-3" d="M964.6.28a9.82,9.82,0,0,1,5.2-12c24-11.07,48-10.68,65.92,1.07S1063.53,23,1062.9,49.43c-.47,19.78,6,35.12,18.34,43.2s29,8,46.94-.35a9.81,9.81,0,0,1,8.22,17.81c-24,11.07-48,10.68-65.92-1.07S1042.67,75.37,1043.3,49c.47-19.78-6-35.12-18.34-43.2S996-2.19,978,6.11a9.81,9.81,0,0,1-13-4.79C964.86,1,964.72.63,964.6.28Z"/><path class="cls-2" d="M964.6.28a9.82,9.82,0,0,1,5.2-12c24-11.07,48-10.68,65.92,1.07S1063.53,23,1062.9,49.43c-.47,19.78,6,35.12,18.34,43.2s29,8,46.94-.35a9.81,9.81,0,0,1,8.22,17.81c-24,11.07-48,10.68-65.92-1.07S1042.67,75.37,1043.3,49c.47-19.78-6-35.12-18.34-43.2S996-2.19,978,6.11a9.81,9.81,0,0,1-13-4.79C964.86,1,964.72.63,964.6.28Z"/><path class="cls-2" d="M623.32,93.55a9.94,9.94,0,0,1-12.73-3.69c-14.25-22.73-17-47-7.43-66.53S633.45-9,660.14-11.8c20-2.08,34.6-10.62,41.14-24s4.27-30.2-6.4-47.23A10,10,0,0,1,698-96.8a10,10,0,0,1,13.72,3.14c14.25,22.73,17,47,7.43,66.53S688.88,5.23,662.2,8c-20,2.08-34.6,10.63-41.15,24s-4.27,30.21,6.41,47.23A10,10,0,0,1,624.31,93,9.49,9.49,0,0,1,623.32,93.55Z"/><path class="cls-3" d="M-157.4.28a9.82,9.82,0,0,1,5.2-12c24-11.07,48-10.68,65.92,1.07S-58.47,23-59.1,49.43c-.47,19.78,6.05,35.12,18.34,43.2s29,8,46.94-.35a9.81,9.81,0,0,1,8.22,17.81c-24,11.07-48,10.68-65.92-1.07S-79.33,75.37-78.7,49c.47-19.78-6-35.12-18.34-43.2s-29-7.95-46.94.35a9.81,9.81,0,0,1-13-4.79C-157.14,1-157.28.63-157.4.28Z"/><path class="cls-2" d="M964.6.28a9.82,9.82,0,0,1,5.2-12c24-11.07,48-10.68,65.92,1.07S1063.53,23,1062.9,49.43c-.47,19.78,6,35.12,18.34,43.2s29,8,46.94-.35a9.81,9.81,0,0,1,8.22,17.81c-24,11.07-48,10.68-65.92-1.07S1042.67,75.37,1043.3,49c.47-19.78-6-35.12-18.34-43.2S996-2.19,978,6.11a9.81,9.81,0,0,1-13-4.79C964.86,1,964.72.63,964.6.28Z"/><path class="cls-3" d="M-157.4.28a9.82,9.82,0,0,1,5.2-12c24-11.07,48-10.68,65.92,1.07S-58.47,23-59.1,49.43c-.47,19.78,6.05,35.12,18.34,43.2s29,8,46.94-.35a9.81,9.81,0,0,1,8.22,17.81c-24,11.07-48,10.68-65.92-1.07S-79.33,75.37-78.7,49c.47-19.78-6-35.12-18.34-43.2s-29-7.95-46.94.35a9.81,9.81,0,0,1-13-4.79C-157.14,1-157.28.63-157.4.28Z"/><path class="cls-2" d="M355.85,5.7A1.87,1.87,0,0,0,359,4c-2.43-14-14.69-24.84-28-26-8.91-.81-17.31,2.3-25.33,6A5.47,5.47,0,0,0,303.93-15a2,2,0,0,0-.51,2c.35,1,1.51,1.24,2.48,1.37,8.72,1.16,17.39,2.46,25.89,4.94S349.55-1.07,355.85,5.7Z"/><path class="cls-2" d="M312.27,41.5a1.47,1.47,0,0,0,2.49,1.38,26.38,26.38,0,0,0,4.73-29.78C316.36,6.51,308,.34,302.7-3.13A1.56,1.56,0,0,0,300.58-1C305.38,8.37,314.74,28.88,312.27,41.5Z"/><path class="cls-2" d="M253.68,55a5.55,5.55,0,0,0,7.83-1.61L295.11,0a5.54,5.54,0,0,0-1.74-7.64,5.54,5.54,0,0,0-7.64,1.74l-33.6,53.44A5.55,5.55,0,0,0,253.68,55Z"/><path class="cls-2" d="M-157.4.28a9.82,9.82,0,0,1,5.2-12c24-11.07,48-10.68,65.92,1.07S-58.47,23-59.1,49.43c-.47,19.78,6.05,35.12,18.34,43.2s29,8,46.94-.35a9.81,9.81,0,0,1,8.22,17.81c-24,11.07-48,10.68-65.92-1.07S-79.33,75.37-78.7,49c.47-19.78-6-35.12-18.34-43.2s-29-7.95-46.94.35a9.81,9.81,0,0,1-13-4.79C-157.14,1-157.28.63-157.4.28Z"/><path class="cls-2" d="M-157.4.28a9.82,9.82,0,0,1,5.2-12c24-11.07,48-10.68,65.92,1.07S-58.47,23-59.1,49.43c-.47,19.78,6.05,35.12,18.34,43.2s29,8,46.94-.35a9.81,9.81,0,0,1,8.22,17.81c-24,11.07-48,10.68-65.92-1.07S-79.33,75.37-78.7,49c.47-19.78-6-35.12-18.34-43.2s-29-7.95-46.94.35a9.81,9.81,0,0,1-13-4.79C-157.14,1-157.28.63-157.4.28Z"/></pattern></defs><g id="Layer_2" data-name="Layer 2"><g id="Capa_1" data-name="Capa 1"><rect class="cls-5" width="3527.52" height="4729.38"/></g></g></svg>