<svg xmlns="http://www.w3.org/2000/svg" viewBox="0 0 46.47 46.67"><defs><style>.cls-1{fill:#fff;}</style></defs><g id="Capa_2" data-name="Capa 2"><g id="Capa_1-2" data-name="Capa 1"><path class="cls-1" d="M33.11,2.17A23.14,23.14,0,0,0,7.05,6.7a22.92,22.92,0,0,0-4.7,26.15A5.27,5.27,0,0,1,2.66,37C1.72,40.08.93,43.23,0,46.67c3.65-1,7-1.9,10.29-2.61a6.3,6.3,0,0,1,3.6.28A23.17,23.17,0,0,0,33.11,2.17ZM35.43,38C29.12,43.14,22,43.75,14.68,40.27a5.24,5.24,0,0,0-4.28-.38C9,40.35,7.59,40.62,6.18,41c-.09,0-.21,0-.54-.12.43-1.56.78-3.14,1.3-4.66a4.32,4.32,0,0,0-.4-3.74C2.81,25.37,3.13,18.36,7.8,11.9A18.11,18.11,0,0,1,26.58,4.25C34.43,5.62,39.72,10.38,41.8,18.1S41.74,32.82,35.43,38Z"/><path class="cls-1" d="M30.28,34.4c-5.82-.77-10.26-2.89-13.54-6.88a37.18,37.18,0,0,1-4.8-7.6c-1.08-2.29-.31-4.66,1.45-6.53,1.55-1.65,3.54-1.27,4.45.79.32.72.54,1.48.92,2.17.82,1.51.85,2.86-.54,4.06-.81.69-.67,1.41-.12,2.23a16.72,16.72,0,0,0,6.42,5.73c1.32.68,2.35.65,3.05-.68,1-2,2.36-1.89,4-.85a14.49,14.49,0,0,0,1.63.8c2.11,1,2.54,3.07.74,4.68A16.88,16.88,0,0,1,30.28,34.4Z"/></g></g></svg>